<?xml version="1.0" encoding="UTF-8"?>
<svg id="Layer_2" data-name="Layer 2" xmlns="http://www.w3.org/2000/svg" viewBox="0 0 624.45 514.26">
  <defs>
    <style>
      .cls-1 {
        fill: #cd7520;
      }

      .cls-2 {
        fill: #223343;
      }
    </style>
  </defs>
  <g id="Layer_1-2" data-name="Layer 1">
    <path class="cls-2" d="M99.82,436.84h69.13c0-3.15,.21-6.11-.06-9.02-.33-3.53,1.29-4.96,4.5-5.9,26.47-7.75,51.59-35.31,55.32-67.91,3.62-31.63-11.48-54.45-42.42-65.81-.94-.34-1.86-.84-2.82-.96-6.23-.78-9.95-3.37-8.59-10.52,.16-.86-2.06-2.66-3.5-3.25-21.43-8.68-42.9-17.25-64.37-25.8-36.17-14.4-65.92-37.81-92.43-65.79-4.67-4.93-9.28-9.93-14.58-15.61,2.08-.22,3.26-.45,4.45-.45,44.16-.02,88.33-.03,132.49-.03,9.63,3.88,19.76,2.61,29.74,2.8,2.48,.05,4.97,0,8.12,0v-23.66c2.61,0,4.55,0,6.5,0,78.99,.07,157.99,.16,236.98,.12,1.78,0,3.51-1.62,5.34-2.25,1.61-.56,3.34-1.13,5.01-1.13,48-.07,95.99-.07,143.99-.07,16.98,0,33.96,0,51.83,0-1.15,7.4-1.66,14.67-3.48,21.59-4.8,18.23-12.62,34.92-25.27,49.32-16.5,18.8-37.14,30.8-60.86,37.22-26.95,7.29-54.22,13.38-81.35,19.99-1.78,.43-3.56,.83-5.82,1.36v14.26c-4.53,1.35-8.74,2.35-12.76,3.84-29.03,10.79-44.28,38.27-37.86,69.7,5.48,26.84,20.9,46.72,44.99,59.81,1.46,.79,2.98,1.82,4.55,2,8.52,.93,10.77,5.93,9.3,13.6-.12,.61,.11,1.28,.22,2.38h68.97v22.22c2.51,.17,4.43,.4,6.37,.42,14.5,.15,28.99,.27,43.49,.39,6.34,.05,7.75,1.31,7.78,7.47,.06,13.17,.06,26.33,.02,39.5-.02,5.71-1.95,7.59-7.38,7.59-124.32,0-248.65,0-372.97-.01-50.66,0-101.32-.07-151.97-.12-6.87,0-8.12-1.28-8.12-8.19,0-12.83-.02-25.67,.02-38.5,.02-6.73,1.11-7.77,7.84-7.77,14.66,0,29.33-.18,43.99,.16,4.78,.11,6.07-1.46,5.77-5.97-.36-5.45-.08-10.94-.08-17.01Zm286.02-43.9h0c-3.85-10.37-8.3-20.57-11.34-31.17-1.86-6.48-1.55-13.57-2.21-20.39l-1.19-.47c-2.11,4.39-4.87,8.59-6.19,13.2-3.72,12.98-1.52,25.65,3.25,38.03,2.23,5.78,5.3,11.34,4.73,17.86-4.73-7.11-10.5-13.74-14-21.41-10.01-21.89-8.66-44.32-.92-66.65,1-1.87,2.11-3.69,2.99-5.61,5.67-12.35,12.96-23.5,23.11-32.75,10.43-9.51,22.24-16.74,35.06-22.44,5.41-.59,4.13-4.93,4.14-8.05,.15-28.17,.12-56.33,.12-84.5,0-1.26-.25-2.52-.39-3.89H201.21c-.1,.88-.23,1.52-.23,2.16-.03,30-.07,60-.05,90,0,1.05,.53,2.11,.81,3.16,1.61,.81,3.17,1.74,4.84,2.43,17.06,6.99,32.35,16.51,43.61,31.43,4.88,6.47,9.02,13.48,13.49,20.25,4.02,9.25,6.94,18.68,8.51,28.81,3.77,24.36-2.43,45.6-17.5,64.61-1.19,1.51-3.08,2.47-4.64,3.68-.09-.46-.42-1.09-.23-1.36,6.67-9.76,10.51-20.43,10.66-32.35,.07-5.3,.84-10.63,.47-15.89-.57-8.15-3.21-15.71-8.5-22.79-.38,6.87-.39,13.13-1.15,19.31-1.44,11.7-6.16,22.33-11.54,32.69-10.79,19.61-27.04,33.83-47.16,45.88h12.21c15.39-.03,30.77-.05,46.16-.08,2.37-1.48,5.25-2.5,7.03-4.5,18.87-21.24,42.58-28.06,69.9-23.15,16.5,2.97,29.39,12.62,40.8,24.5,1.49,1.55,4.05,2.07,6.11,3.06,14.05,.09,28.1,.18,42.15,.27h13.54c-8.1-6.44-16.64-12.19-23.88-19.26-7.35-7.17-13.42-15.64-20.05-23.54-.25-.35-.5-.7-.75-1.05ZM172.95,252.73c4.06,.78,1.82-2.43,1.83-3.45,.16-20.46,.13-40.93,.13-61.39,0-1.92,0-3.84,0-5.53-10.86,.98-21.23,1.92-31.87,2.88,0,17.86-.08,35.47,.17,53.08,.02,1.22,2.39,2.4,3.67,3.61,8.69,3.6,17.37,7.2,26.06,10.81ZM44.87,183.89c1.58,1.67,3.05,3.47,4.77,4.98,21.53,18.9,46.27,32.5,72.39,43.83,.47-.89,1.33-1.78,1.34-2.68,.17-10.15,.23-20.29,.28-30.44,.03-6.9,0-13.81,0-21.09H38.54c2.61,2.23,4.47,3.82,6.32,5.4Zm552.08-14.95c1.13-2.5,2.25-5.01,3.45-7.67h-153.79v72.32c2.02-.96,3.42-1.63,4.82-2.29,14.3-4.03,28.59-8.08,42.9-12.09,12.11-3.39,24.24-6.72,36.36-10.08-26.41,13.37-55.94,17.58-83.25,28.39,.72,.45,1.32,.45,1.88,.3,15.76-4.04,31.56-7.96,47.27-12.19,17.93-4.83,35.69-10.22,52.21-18.93,3.26-1.72,6.13-4.16,9.18-6.26,4.95-4.13,9.89-8.27,14.84-12.4,2.6,2.61,5.19,5.22,8.95,9.01,5.49-10.16,10.34-19.13,15.19-28.1Zm-95.09,285.01c-.83-.04-1.66-.12-2.49-.12-124.15-.03-248.3-.05-372.45-.06-1.27,0-2.53,.19-3.88,.3v37.54h6.86v-14.48H495.06v14.41h7.92c0-12.14,.02-23.94-.05-35.73,0-.62-.7-1.24-1.08-1.86Zm-436.82,38.72q8.53,.32,8.53-7.57c0-.5,.04-1-.01-1.5-.45-4.44,1.81-5.91,5.95-5.78,4.49,.14,8.99-.03,13.49-.07,7.49-.06,7.58-.17,6.03-7.83h-33.99v22.75Zm460.4-22.73q-.45,7.85,6.47,7.85c2.33,0,4.66,0,6.98,0q12.48,.02,13.29,12.68c.02,.28,.27,.55,.56,1.11h7.63v-21.64h-34.93Z"/>
    <path class="cls-2" d="M312,131.16c-19.8,0-39.6,.03-59.41-.02-5.8-.02-8.05-2.13-8-7.08,.05-5.07,2.34-7.26,7.89-7.26,39.61-.04,79.22-.07,118.83-.05,6.39,0,10.22,3.83,9.14,8.95-.98,4.61-4.22,5.86-8.54,5.84-19.97-.07-39.94-.03-59.91-.03v-.34Z"/>
    <path class="cls-1" d="M313.73,67.5c22.07-.18,43.3,4.15,64.2,10.59,1.42,.44,3.17,.75,4.04,1.76,1.14,1.32,2.57,3.76,2.05,4.82-.72,1.46-3.27,3.07-4.82,2.88-4.25-.54-8.37-2.01-12.56-3.07-21.56-5.48-43.58-8.22-65.66-6.31-17.25,1.49-34.27,5.73-51.39,8.75-1.62,.29-3.28,.92-4.87,.78-3.69-.32-5-3.64-2.55-6.42,1.05-1.2,2.53-2.43,4.02-2.78,12.24-2.93,24.43-6.19,36.82-8.26,10.1-1.69,20.45-1.87,30.7-2.72Z"/>
    <path class="cls-1" d="M310.53,89.4c17.46,.26,34.51,2.81,51.38,6.83,1.94,.46,4.14,.77,5.62,1.92,1.44,1.12,2.1,3.23,3.1,4.9-1.8,.78-3.71,2.4-5.38,2.19-7.4-.93-14.7-2.61-22.09-3.62-23.72-3.23-47.39-2.91-70.97,1.5-3.91,.73-7.9,1.11-11.77,1.99-2.75,.63-5.26,.69-6.22-2.27-1.14-3.49,1.7-4.87,4.29-5.54,7.39-1.9,14.79-4.01,22.33-5.09,9.84-1.41,19.81-1.92,29.72-2.82Z"/>
    <path class="cls-2" d="M553.42,284.19c9.32,0,18.63-.01,27.95,0,6.36,.01,8.47,1.62,8.54,6.43,.07,4.71-2.33,6.73-8.31,6.76-19.3,.09-38.6,.15-57.9,.18-5.3,0-8.08-2.3-8.18-6.58-.1-4.39,2.49-6.69,7.95-6.73,9.98-.07,19.96-.02,29.95-.02v-.05Z"/>
    <path class="cls-2" d="M73.39,297.49c-9.82,0-19.65,.03-29.47-.01-5.27-.03-8.2-2.51-8.12-6.68,.08-4.01,2.8-6.41,7.84-6.44,19.65-.11,39.29-.15,58.94-.13,4.98,0,7.42,2.4,7.4,6.77-.02,4.36-2.32,6.3-7.62,6.31-9.66,.02-19.31,0-28.97,0,0,.06,0,.11,0,.17Z"/>
    <path class="cls-2" d="M164.82,350.01c-12.87,11.29-25.71,22.62-38.64,33.84-4.36,3.78-9.6,3.24-11.86-1.05-2.27-4.29,.01-7.37,3.17-9.92,8.77-7.1,17.59-14.14,26.47-21.11,4.83-3.79,9.82-7.38,14.74-11.06-.21,4.58,2.47,7.26,6.12,9.3Z"/>
    <path class="cls-2" d="M318.68,28.87c0,6.65,.02,13.3,0,19.95-.02,5.2-2,7.37-6.57,7.31-4.36-.06-6.38-2.18-6.38-6.99,0-13.63,.05-27.26,.17-40.89,.05-5.42,2.5-8.36,6.55-8.25,4.14,.12,6.27,3,6.26,8.42-.01,6.82,0,13.63,0,20.45h-.02Z"/>
    <path class="cls-2" d="M471.89,346.82c3.81,2.54,7.81,4.84,11.4,7.66,8.34,6.56,16.57,13.26,24.67,20.12,3.21,2.72,4.57,6.24,1.34,10-2.74,3.19-6.54,3.07-10.51-.43-11.33-9.98-22.6-20.03-33.89-30.05,3.02-1.77,6.85-2.77,6.99-7.3Z"/>
    <path class="cls-1" d="M461.93,385.32c-2.27-1.28-4.15-1.83-5.31-3.06-10.85-11.49-21.66-23.01-32.19-34.78-1.07-1.2-.91-4.39-.14-6.13,1.21-2.71,3.8-2.29,5.87-.64,3.63,2.9,7.31,5.77,10.66,8.97,8.16,7.79,16.29,15.63,24.1,23.77,1.53,1.59,2.5,4.81,2.04,6.9-.42,1.89-3.17,3.25-5.03,4.97Z"/>
    <path class="cls-1" d="M163.2,384.87c-2.09-1.69-4.51-2.75-5.29-4.53-.66-1.51-.13-4.53,1.05-5.71,11.17-11.11,22.49-22.08,34.09-32.75,1.44-1.33,5.25-1.62,7.06-.67,3.18,1.66,1.3,4.58-.07,6.89-.59,.99-1.27,1.96-2.06,2.79-9.55,9.97-19.08,19.95-28.74,29.8-1.54,1.57-3.67,2.56-6.04,4.17Z"/>
    <path class="cls-2" d="M440.47,54.68c-1.31,2.69-1.98,4.57-3.06,6.19-5.14,7.73-10.37,15.4-15.61,23.06-.84,1.22-1.78,2.44-2.91,3.38-3.08,2.55-6.47,2.7-9.51,.12-2.86-2.43-2.79-5.62-.75-8.52,6.48-9.22,12.93-18.48,19.84-27.39,1.23-1.58,4.83-2.5,6.85-1.95,2.04,.55,3.47,3.32,5.16,5.11Z"/>
    <path class="cls-2" d="M210.04,89.09c-.84-.59-3.31-1.53-4.58-3.33-6.42-9.1-12.57-18.39-18.71-27.68-1.96-2.97-1.24-5.84,1.47-7.93,2.83-2.19,6.44-2.54,8.53,.37,7.27,10.11,14.28,20.41,20.95,30.92,2.32,3.65-1.05,7.51-7.66,7.66Z"/>
    <path class="cls-1" d="M471.89,346.82c-.14,4.53-3.96,5.53-6.99,7.3-6.33-5.3-12.65-10.6-18.98-15.9-2.93-2.45-5.77-5.01-8.82-7.3-2.9-2.17-3.17-5.14-1.12-7.28,1.24-1.29,5.15-1.94,6.44-.98,10.03,7.52,19.72,15.51,29.52,23.35-.06,.11-.18,.22-.17,.32,.02,.2,.12,.39,.19,.58l-.07-.1Z"/>
    <path class="cls-1" d="M496.81,329.85c-3.52-1.64-6.45-2.75-9.12-4.3-6.6-3.82-13.11-7.79-19.59-11.8-2.42-1.49-5.22-3.27-3.46-6.65,1.7-3.26,4.65-4.03,8.05-2.21,8.61,4.61,17.36,8.98,25.75,13.97,1.78,1.05,3.06,4.31,3.03,6.53-.02,1.44-2.85,2.83-4.65,4.46Z"/>
    <path class="cls-1" d="M128.6,329.22c-1.3-1.14-3.81-2.31-4.28-4.03-.48-1.8,.37-5.26,1.74-6.04,8.83-4.97,17.86-9.63,27.1-13.78,1.63-.73,4.55,1.42,6.87,2.24-.77,2.15-.91,5.36-2.43,6.29-8.22,5-16.77,9.45-25.23,14.05-.86,.46-1.87,.64-3.77,1.27Z"/>
    <path class="cls-1" d="M164.82,350.01c-3.66-2.03-6.33-4.72-6.12-9.3,7.75-6.11,15.38-12.41,23.4-18.17,1.31-.94,5.74-.16,6.21,.93,.81,1.87,.53,5.52-.83,6.8-7.29,6.86-15.05,13.21-22.65,19.73Z"/>
    <path class="cls-2" d="M230.94,115.01c.06,4.73-3.98,8.77-8.86,8.87-5.03,.1-9.09-4.03-9.05-9.2,.03-4.84,3.67-8.52,8.48-8.57,5.14-.05,9.37,3.93,9.43,8.9Z"/>
    <path class="cls-2" d="M403.04,123.78c-4.72,.14-8.72-3.76-9-8.76-.27-4.85,3.22-8.6,8.15-8.76,4.94-.16,9.08,3.56,9.35,8.4,.27,4.92-3.51,8.98-8.5,9.12Z"/>
    <path class="cls-2" d="M462.18,100.02c-.1,4.74-4.34,8.53-9.31,8.32-4.83-.2-8.27-4.26-8.06-9.51,.19-4.77,3.56-7.99,8.35-7.99,5.22,0,9.13,3.98,9.02,9.17Z"/>
    <path class="cls-2" d="M180.89,99.52c.03,4.88-4.04,9.08-8.74,9.02-4.43-.06-8.27-4.28-8.16-8.98,.1-4.65,4.03-8.69,8.47-8.73,4.51-.04,8.4,3.97,8.43,8.69Z"/>
    <path class="cls-2" d="M96.9,397.15c-.05,4.73-3.98,8.67-8.56,8.58-4.88-.09-8.49-3.75-8.49-8.61,0-4.88,3.59-8.44,8.51-8.45,4.85,0,8.6,3.71,8.55,8.48Z"/>
    <path class="cls-2" d="M523.74,327.96c4.66,.11,8.47,4.38,8.33,9.33-.14,4.79-3.61,8.08-8.34,7.89-4.87-.19-8.02-3.75-7.9-8.93,.12-5.07,3.3-8.4,7.91-8.3Z"/>
    <path class="cls-2" d="M109.33,337c-.07,4.5-3.9,8.24-8.37,8.17-4.73-.07-8.33-3.98-8.16-8.85,.16-4.63,3.53-8.25,7.67-8.25,4.86,0,8.93,4.11,8.86,8.93Z"/>
    <path class="cls-2" d="M256.87,43.03c4.89,.11,8.64,3.9,8.43,8.54-.19,4.31-4.16,7.78-8.78,7.68-4.8-.11-8.02-3.46-7.96-8.28,.06-4.73,3.53-8.04,8.3-7.93Z"/>
    <path class="cls-2" d="M366.85,59.09c-4.8-.07-7.87-3.32-7.84-8.29,.03-4.76,3.03-7.84,7.67-7.85,5.06-.02,8.84,3.37,8.93,8.03,.09,4.62-3.76,8.19-8.75,8.12Z"/>
    <path class="cls-2" d="M516.7,110.66c-3.74-.11-6.54-3.01-6.46-6.72,.08-3.77,3.33-6.93,7.03-6.85,3.87,.09,6.89,3.25,6.73,7.05-.15,3.7-3.43,6.63-7.31,6.52Z"/>
    <path class="cls-2" d="M114.8,104.05c-.09,3.47-3.3,6.71-6.67,6.75-3.51,.03-7.1-3.49-7.09-6.94,0-3.66,3.37-6.98,6.99-6.93,3.65,.05,6.87,3.44,6.77,7.13Z"/>
    <path class="cls-1" d="M566.73,363.69c-1.82-2.23-3.66-3.51-3.6-4.69,.06-1.2,1.97-3.17,3.12-3.21,1.19-.04,3.18,1.7,3.43,2.94,.22,1.11-1.45,2.6-2.95,4.96Z"/>
    <path class="cls-1" d="M58.94,363.99c-1.73-2.25-3.54-3.59-3.47-4.82,.07-1.22,1.94-3.15,3.17-3.27,1.04-.11,3.1,1.83,3.25,3.03,.15,1.25-1.48,2.7-2.95,5.06Z"/>
    <path class="cls-2" d="M471.96,346.92c-.07-.19-.16-.38-.19-.58-.01-.1,.11-.21,.17-.32,.06,.2,.15,.4,.18,.6,.01,.09-.1,.2-.16,.3Z"/>
    <path class="cls-1" d="M263.68,314.1c-4.48-6.77-8.62-13.79-13.49-20.25-11.25-14.92-26.55-24.45-43.61-31.43-1.66-.68-3.23-1.61-4.84-2.43,3.01,.28,4.5-.63,4.34-4.12-.19-4.13,.48-8.29,.52-12.43,.18-18.48,.25-36.97,.39-55.45,.01-1.58,.19-3.16,.25-4.01,7.19,.44,13.85,.6,20.45,1.36,2.96,.34,6.53,1.13,8.5,3.06,4.97,4.88,7.63,5.65,12.96,2.53,8.17,4.04,15.97-2,23.62,.36-6.95,8.15-12.66,16.79-14.76,26.96-4.74,22.96,2.48,41.76,20.59,56.75,18.86,15.62,48.2,15.98,67.59,1,23.36-18.05,30.78-52.73,12.56-76.88-1.06-1.4-.94-3.69-1.51-6.22,4.92,.79,8.37,1.94,11.74,1.74,4.52-.26,8.98-1.55,13.46-2.42,5.05-.98,7.72-4.11,7.95-9.42,1.4,7.07,1.79,7.65,8.4,6.93,4.96-.54,9.46,.2,14.32,1.3,3.55,.81,3.72,2.27,4.16,4.6,.27,1.46,.46,2.96,.46,4.44,.08,17.65,.13,35.3,.15,52.96,0,1.47,.26,3.42-.53,4.32-2.66,3.05-.07,3.13,1.78,3.77-12.83,5.7-24.63,12.93-35.06,22.44-10.15,9.25-17.43,20.4-23.11,32.75-.88,1.92-1.99,3.75-2.99,5.61-2.61-1.67-4.57-1.57-5.62,1.82-.63,2.03-1.7,3.92-2.28,5.96-3.48,12.23-3.76,24.75-3.23,37.33-.31,1.07-.99,2.19-.85,3.2,.67,5.11-2.89,7.58-4.78,9.42-5.24-.8-9.24-1.42-13.72-2.1,.11,.17-.29-.21-.4-.66-.79-3.46-3.31-3.64-5.77-2.53-2.89,1.3-1.71,3.06-.74,5.58,1,2.57-.19,5.98-.41,9.02-.74-.34-1.48-.69-2.21-1.03,2.05-3.56,1.68-6.85-2.1-8.66-3.24-1.56-6.6-.95-8.21,2.81-.67,1.55-.5,3.46-.72,5.21-.09,.96-.18,1.93-.27,2.89-4.41-2.71-3.03-6.87-2.34-10.73-8.88,.52-17.43,1.02-25.83,1.52-.48-1.62-.97-3.28-1.46-4.93,1.46-12.66,3.31-25.33-1.21-37.79-.1-.28,.14-.68,.06-.98-1.75-6.33-3.12-12.81-5.51-18.89-.81-2.05-2.58-5.81-6.66-4.27Zm75.12-3.2c.06-.31,.12-.63,.18-.94-.1-2.59,.22-5.31-.53-7.69-.29-.91-3.74-1.95-4.53-1.34-2,1.53-3.35,3.95-4.88,6.06-.23,.32-.05,.95-.06,1.44,1.15,2.03,2.3,4.07,3.45,6.1,2.15-1.25,4.29-2.51,6.44-3.76l-.07,.14Zm-41.01-2.03c-.96-2.39-1.37-5.38-3.08-6.94-1.05-.96-5.06-.48-6.03,.72-1.4,1.76-1.26,4.75-1.77,7.21,.22,4.02,2.91,5.47,6.3,5.07,3.17-.37,5.23-2.4,4.59-6.06Zm107.23-58.95c.17-.95,.66-1.96,.47-2.82-.78-3.4-2.88-5.54-6.53-5.6-4.91-.08-6.33,3.3-6.98,7.34-.63,.98-1.76,1.93-1.8,2.94-.17,3.88,3.82,7,8.6,7,4.18,0,8.82-3.83,8.58-7.32-.04-.56-1.52-1.03-2.33-1.54Zm-20.97-35.2c-2.81,1.46-2.62,3.42-1,5.68,3.49,4.88,9.23,5.73,13.6,1.79,1.53-1.38,2.62-3.25,4.03-5.04-.84-.58-1.32-1.09-1.9-1.26-.6-.18-1.3-.04-1.96-.04,.2-5.97-1.99-8.94-6.6-8.94-3.95,0-6.07,2.69-6.18,7.82Zm-157.96-.12c-2.27,1.35-2.52,2.92-1.18,5.29,2.79,4.96,12.34,5.96,15.55,1.25,1.27-1.87,3.7-4.59-.58-6.28-1.48-2.5-2.52-5.54-4.63-7.28-1.08-.89-4.58-.08-6.08,1.11-1.59,1.26-2.1,3.88-3.08,5.9Zm6.92,34.37c.16-.92,.79-2.31,.41-2.69-1.92-1.92-3.85-4.46-6.24-5.12-4.45-1.24-6.5,2.09-7.61,5.93-.8,.85-2.33,1.74-2.29,2.54,.24,4.06,2.16,7.36,6.13,8.72,3.84,1.32,7.65,.93,10.06-2.86,1.32-2.08,3.25-4.63-.48-6.54Zm94.66,85.74c-.16-2.7,.62-6.01-.65-8-5.6-8.73-20.29-10.31-27.75-3.22-1.64,1.56-2.5,3.93-3.72,5.93,.4,.28,.8,.56,1.2,.84,1.78-.93,3.57-1.86,5.74-2.99-1.17,3.01-2.12,5.43-3.06,7.85-1.4,.17-2.8,.35-4.44,.55,0,1.68-.03,3,0,4.31,.24,9.92,8.58,17.25,19.01,16.75,8.89-.43,16.47-9.28,15.63-18.48-.11-1.23-1.29-2.37-1.97-3.55Z"/>
    <path class="cls-1" d="M501.85,453.96c.38,.62,1.08,1.24,1.08,1.86,.07,11.79,.05,23.59,.05,35.73h-7.92v-14.41H129.88v14.48h-6.86c0-5.25,0-10.52,0-15.79,1.79,0,3.58,0,6.03,0,0-3.02,.29-5.83-.06-8.56-.66-5.16,1.41-6.39,6.42-6.39,117.73,.15,235.45,.14,353.18,.15,1.94,0,3.89,0,6.42,0,0,3.61,0,6.56,0,9.51,0,6.17,.45,6.49,6.83,4.69v-21.27Z"/>
    <path class="cls-1" d="M557.96,200.45c-3.05,2.11-5.93,4.54-9.18,6.26-16.52,8.71-34.28,14.11-52.21,18.93-15.71,4.23-31.51,8.15-47.27,12.19-.56,.14-1.16,.15-1.88-.3,27.31-10.8,56.85-15.02,83.25-28.39-12.12,3.36-24.25,6.69-36.36,10.08-14.31,4-28.6,8.05-42.9,12.08-.18-1.48-.51-2.96-.51-4.43,.02-17.49,.22-34.98,.07-52.47-.04-4.49,1.54-5.57,5.82-5.55,38.98,.17,77.96,.13,116.93,.18,1.25,0,2.5,.24,4.14,.4-.46,1.5-.71,2.59-1.13,3.62-3.52,8.5-9.04,15.44-16.44,20.87-2.31,1.69-4.2,3.41-2.33,6.53Zm-94.98-10.66c-1.89,4.61,.03,8.4,5.34,10.54,4.25,1.72,8.63-.59,10.78-5.69,8.88,.03,17.76,.19,26.64-.03,1.38-.03,2.72-1.82,4.08-2.8-.03,3.05,.14,6.17,3.95,6.77,3.46,.55,5.99-.94,7.04-4.47,2.99-.09,5.99-.07,8.96-.34,.76-.07,1.93-1.01,2-1.65,.07-.66-1.05-2.14-1.49-2.08-3.71,.52-4.24-2.29-5.42-4.65-2.2-4.41-5.96-6.52-10.84-6.61-4.92-.09-7.91,2.26-9.56,6.98-.48,1.37-2.75,2.87-4.3,2.98-5.14,.37-10.32,.28-15.47,.03-1.55-.08-3.76-.85-4.44-2.02-2.14-3.69-4.99-6.05-9.21-5.55-4.81,.57-7.38,3.84-8.07,8.59Z"/>
    <path class="cls-1" d="M416.97,436.79c-14.05-.09-28.1-.18-42.15-.27,2.47-1.28,1.64-2.56,.08-3.97-5.38-4.85-10.73-9.74-16.08-14.62,2.33-2.35,4.65-4.69,6.98-7.04,3.95,3.55,7.9,7.1,11.85,10.65,.56-.52,1.12-1.03,1.67-1.55-2.14-3.34-4.29-6.68-6.43-10.02,.56-6.52-2.51-12.08-4.73-17.86-4.77-12.37-6.97-25.04-3.25-38.03,1.32-4.61,4.09-8.81,6.19-13.2l1.19,.47c.66,6.82,.35,13.92,2.21,20.39,3.04,10.6,7.49,20.8,11.34,31.17-1.06-.27-2.12-.54-3.33-.84-.03,.73-.16,1.22-.06,1.67,2.95,13.48,10.97,23.58,21.37,32.1,4.41,3.62,8.77,7.29,13.16,10.93Z"/>
    <path class="cls-1" d="M239.77,390.81c5.38-10.36,10.1-20.99,11.54-32.69,.76-6.17,.77-12.44,1.15-19.31,5.29,7.08,7.93,14.64,8.5,22.79,.37,5.26-.4,10.59-.47,15.89-.15,11.92-4,22.59-10.66,32.35-.19,.27,.14,.9,.23,1.36,0,0,0-.29,0-.29-.03,.83-.06,1.67-.1,2.5-3.19,3.68-6.38,7.37-9.57,11.05l1.23,1.11c3.66-2.63,7.32-5.25,10.97-7.88,1.11,3.19,2.22,6.38,3.32,9.57-1.39,1.58-3.05,3-4.08,4.79-.73,1.27-.61,3.02-.86,4.56-15.39,.03-30.77,.05-46.16,.08,3.39-2.34,6.81-4.64,10.17-7.01,12.45-8.8,22.97-19.12,26.28-34.78,.25-1.2-.96-2.72-1.5-4.09Z"/>
    <path class="cls-1" d="M122.02,232.71c-26.12-11.33-50.86-24.94-72.39-43.83-1.72-1.51-3.19-3.31-4.77-4.98,18.72,.71,37.45,1.36,56.17,2.15,5.74,.24,11.46,.86,17.5,1.34v20.93l-27.01-5.48c-.03,.14-.06,.28-.09,.42,5.41,2.23,10.82,4.46,16.23,6.69-.2,.54-.4,1.09-.6,1.63-10.84-3.18-21.68-6.37-33.48-9.83,14.74,10.35,29.11,19.07,45.17,25.02,.29-4.32,.55-8.24,.81-12.16,.82,6.03,1.64,12.06,2.46,18.09Z"/>
    <path class="cls-1" d="M572.79,188.05c3.66-5.6,7.22-11.27,11.05-16.75,.67-.95,2.42-1.4,3.74-1.58,3.1-.42,6.23-.53,9.35-.76-4.85,8.97-9.7,17.95-15.19,28.1-3.76-3.78-6.36-6.39-8.95-9.01Z"/>
    <path class="cls-1" d="M170.73,247.81c.74,1.64,1.48,3.28,2.22,4.92-8.69-3.6-17.37-7.2-26.06-10.81,.17-6.79,.33-13.58,.5-20.36,.09,4.46-.02,8.94,.37,13.37,.13,1.47,1.16,3.56,2.37,4.11,6.77,3.13,13.72,5.89,20.61,8.77Z"/>
    <path class="cls-1" d="M386.58,393.99c-.25-.35-.5-.7-.75-1.05,.25,.35,.5,.7,.75,1.05Z"/>
    <path class="cls-2" d="M346.83,367.04c1.42,15.46,7.81,28.98,16.35,41.64,.62,.91,1.73,1.49,2.62,2.22-2.33,2.35-4.65,4.69-6.98,7.04-11.27-7.9-23.38-13.81-37.26-15.17-25.83-2.54-47.57,6.09-65.63,24.5-1.11-3.19-2.22-6.38-3.32-9.57,11.79-11.74,20.33-25.39,24.4-41.65,.49,1.65,.98,3.3,1.46,4.93,8.4-.49,16.95-.99,25.83-1.52-.69,3.87-2.07,8.02,2.34,10.73,4.92,5.4,9.84,4.96,13.51-1.21,.23-3.04,1.41-6.46,.41-9.02-.98-2.52-2.15-4.28,.74-5.58,2.46-1.1,4.98-.93,5.77,2.53,.1,.45,.5,.83,.4,.66,4.48,.69,8.48,1.3,13.72,2.1,1.89-1.84,5.45-4.31,4.78-9.42-.13-1.01,.55-2.13,.85-3.2Z"/>
    <path class="cls-2" d="M299.44,335.12c.95-2.42,1.89-4.84,3.06-7.85-2.18,1.13-3.96,2.06-5.74,2.99-.4-.28-.8-.56-1.2-.84,1.22-2,2.08-4.37,3.72-5.93,7.46-7.1,22.15-5.52,27.75,3.22,1.28,1.99,.49,5.3,.65,8-.85,1.77-2.09,3.46-2.48,5.32-1.8,8.6-10.53,13.27-18.29,9.49-4.74-2.31-6.94-6.41-7.39-11.55l-.03-1.2c-.02-.55-.04-1.1-.05-1.65Z"/>
    <path class="cls-2" d="M219.58,247.09c1.11-3.85,3.15-7.17,7.61-5.93,2.39,.66,4.32,3.21,6.24,5.12,.38,.38-.25,1.76-.41,2.69-1.41,3.13-3.68,5.11-7.27,4.64-3.7-.48-5.68-2.86-6.17-6.51Z"/>
    <path class="cls-2" d="M226.1,214.6c.98-2.02,1.49-4.64,3.08-5.9,1.5-1.19,5-2,6.08-1.11,2.11,1.74,3.15,4.78,4.63,7.28-2.92,4.67-6.67,6.08-10.04,3.58-1.42-1.05-2.51-2.55-3.75-3.85Z"/>
    <path class="cls-2" d="M384.06,214.72c.1-5.13,2.23-7.82,6.18-7.82,4.61,0,6.8,2.97,6.6,8.94-4.6,5.16-8.68,4.8-12.78-1.12Z"/>
    <path class="cls-2" d="M391.99,248.84c.65-4.04,2.07-7.42,6.98-7.34,3.65,.06,5.75,2.2,6.53,5.6,.2,.86-.29,1.88-.47,2.82-5.09,5.7-9.01,5.38-13.04-1.08Z"/>
    <path class="cls-2" d="M306.91,387.29c.21-1.75,.05-3.66,.72-5.21,1.62-3.76,4.97-4.36,8.21-2.81,3.77,1.81,4.14,5.1,2.1,8.66-3.85,2.84-7.54,2.78-11.03-.65Z"/>
    <path class="cls-2" d="M328.99,308.43c0-.49-.17-1.11,.06-1.44,1.53-2.12,2.87-4.53,4.88-6.06,.79-.61,4.25,.44,4.53,1.34,.75,2.38,.42,5.11,.53,7.69-.06,.31-.12,.63-.18,.94,0,0,.07-.14,.07-.14-3.3-.78-6.59-1.56-9.89-2.34Z"/>
    <path class="cls-2" d="M286.91,309.87c.52-2.47,.37-5.46,1.77-7.21,.96-1.21,4.98-1.68,6.03-.72,1.71,1.56,2.12,4.55,3.09,6.94-3.44,2.43-7.02,3.29-10.89,.99Z"/>
    <path class="cls-2" d="M266.77,231.14c.05-24.44,21.25-45.31,45.93-45.23,25.08,.09,46.01,20.66,45.9,45.12-.12,26.25-19.91,46.59-45.43,46.67-25.21,.08-46.45-21.23-46.4-46.56Zm71.31-2.54c-1.67-13.14-12-22.37-24.82-22.87-15.21-.59-28.61,13.41-26.17,29.94,1.16,9.82,6.87,16.38,15.5,20.3,9.65,4.38,18.91,2.9,26.91-3.98,7.08-6.09,10.57-13.81,8.58-23.38Z"/>
    <path class="cls-2" d="M238.02,178.83c.42-2.73,3.2-3.63,6.22-3.76,3.36-.15,7.46,3.62,6.26,6.14-1.23,2.61-3.92,5.35-6.57,6.25-2.91,.99-6.1-3.66-5.91-8.63Z"/>
    <path class="cls-2" d="M381.86,175.49c3.24,.09,5.86,1.84,6.4,5.68,.41,2.94-3.28,6.45-6.46,6.26-3.67-.22-6.32-2.18-7-5.86-.54-2.94,3-6.01,7.07-6.08Z"/>
    <path class="cls-2" d="M509.81,191.81c-1.36,.98-2.69,2.76-4.08,2.8-8.87,.22-17.76,.07-26.64,.03-2.12-1.91-4.1-4.14-6.87-.6-.48,.61-2.58,.63-3.46,.12-2.08-1.2-3.88-2.88-5.79-4.37,.69-4.75,3.26-8.02,8.07-8.59,4.22-.5,7.08,1.86,9.21,5.55,.68,1.17,2.89,1.95,4.44,2.02,5.15,.25,10.34,.34,15.47-.03,1.55-.11,3.82-1.61,4.3-2.98,1.65-4.73,4.63-7.07,9.56-6.98,4.88,.09,8.64,2.2,10.84,6.61,1.18,2.36,1.71,5.17,5.42,4.65,.44-.06,1.56,1.41,1.49,2.08-.07,.64-1.25,1.58-2,1.65-2.97,.27-5.97,.25-8.96,.34-1.88-1.98-3.47-4.56-5.77-5.67-.97-.47-3.44,2.16-5.22,3.38Z"/>
    <path class="cls-2" d="M250.06,410.91c-.03,.83-.06,1.67-.1,2.5,.03-.83,.06-1.67,.1-2.5Z"/>
    <path class="cls-2" d="M118.53,208.32c.34,2.1,.69,4.2,1.03,6.3-.26,3.92-.52,7.84-.81,12.16-16.06-5.95-30.44-14.67-45.17-25.02,11.8,3.47,22.64,6.65,33.48,9.83,.2-.54,.4-1.09,.6-1.63-5.41-2.23-10.82-4.46-16.23-6.69,.03-.14,.06-.28,.09-.42l27.01,5.48Z"/>
    <path class="cls-1" d="M147.46,220.33v-29.25c8.14-.51,15.3-.96,23.36-1.47,0,12.97,0,25.18,0,37.39-7.79-2.22-15.57-4.45-23.36-6.67Z"/>
    <path class="cls-2" d="M147.46,220.33c7.79,2.22,15.57,4.45,23.36,6.67-.03,6.94-.06,13.87-.09,20.81-6.89-2.88-13.84-5.63-20.61-8.77-1.2-.56-2.24-2.65-2.37-4.11-.38-4.43-.28-8.91-.37-13.37,.03-.41,.05-.82,.08-1.22Z"/>
    <path class="cls-1" d="M299.52,337.97c0-.4-.02-.8-.03-1.2,0,.4,.02,.8,.03,1.2Z"/>
    <path class="cls-1" d="M338.08,228.6c1.99,9.57-1.5,17.29-8.58,23.38-8,6.88-17.26,8.36-26.91,3.98-8.63-3.92-14.34-10.47-15.5-20.29,2.91,.66,3.68-.62,3.8-3.43,.14-3.06,.31-6.47,1.72-9.05,4.72-8.63,12.37-13.02,22.22-12.1,9.47,.88,15.54,6.75,19.23,15.28,.79,1.82,1.66,3.6,2.97,6.43,.58-2.32,.81-3.26,1.05-4.21Zm-24.7,12.23c5.22-.11,9.53-4.17,9.43-8.87-.12-5.44-4.31-9.24-10.16-9.22-5.59,.02-9.15,3.82-8.94,9.55,.18,4.88,4.46,8.65,9.68,8.54Z"/>
  </g>
</svg>