<?xml version="1.0" encoding="UTF-8"?>
<svg id="Layer_2" data-name="Layer 2" xmlns="http://www.w3.org/2000/svg" viewBox="0 0 1120.81 387.16">
  <defs>
    <style>
      .cls-1 {
        fill: #cd7520;
      }

      .cls-2 {
        fill: #223343;
      }
    </style>
  </defs>
  <g id="Layer_1-2" data-name="Layer 1">
    <g>
      <path class="cls-1" d="M619.42,168.35c14.99,16.41,28.63,31.35,42.26,46.29,2.41,2.64,5.05,5.14,7.08,8.06,3.15,4.52,1.64,7.58-3.83,7.62-16.11,.11-32.24,.23-48.34-.44-3.23-.13-6.97-3.12-9.37-5.78-12.82-14.16-25.73-28.27-37.71-43.12-7.61-9.44-16.31-13.03-29.05-9.83,0,15.01,0,30.42,0,45.83,0,10.74-2.39,13.15-13.08,13.15-9.55,0-19.11-.25-28.65-.02-8.09,.19-11.34-3.77-11.31-11.45,.13-37.61,.2-75.22,.29-112.82,.05-23.57,.07-47.14,.14-70.71,.03-10.64,1.98-12.78,12.41-12.79,29.55-.02,59.12-.59,88.63,.49,13.22,.49,26.79,2.94,39.35,7.07,25.62,8.41,42.41,24.92,47.79,53.17,2.53,13.29,3.45,25.81,.46,38.53-6.78,28.9-26.39,43.34-57.06,46.76Zm-78.56-46.75c19.33,0,38.08,.09,56.82-.03,14.66-.09,25.35-8.6,24.74-21.15-.64-13.36-6.35-23.98-22.38-25.39-19.44-1.72-39.16-.41-59.19-.41v46.98Z"/>
      <path class="cls-1" d="M328.27,16.92c54.87-2.45,114.61,45.59,113.99,111.33-.57,59.5-52.34,109.52-113.6,109.02-63.77-.52-112.59-48.31-112.39-110.02,.2-62.53,48.95-110.55,112-110.33Zm-55,108.63c.08,33.13,21.77,55.41,54.56,56.55,30.36,1.05,55.96-23.68,56.7-53.69,.78-31.63-23.73-56.92-55.64-57.4-30.46-.45-55.04,23.64-55.62,54.54Z"/>
      <path class="cls-1" d="M858.97,164.6c-6.26,0-12.52,.09-18.78-.02-8.18-.15-13.04-4.71-13.62-12.53-.73-9.8-.97-19.74-.11-29.5,.25-2.83,4.96-7.44,7.74-7.52,21.47-.67,42.98-.59,64.47-.38,6.39,.06,9.59,4.2,9.59,10.58-.03,30.45,.17,60.9-.46,91.34-.09,4.26-3.42,9.84-6.98,12.18-2.55,1.68-7.97-1.19-12.14-1.68-3.36-.39-7.21-1.35-10.12-.21-44.66,17.51-87.12,14.44-124.37-16.84-35.05-29.43-48.54-68.03-35.12-112.56,13.2-43.79,43.24-71.81,88.98-79.43,29.27-4.88,57.64,.5,83.3,16.61,9.22,5.79,9.96,8.81,4.27,17.96-4.31,6.92-8.22,14.13-12.96,20.74-8.09,11.3-12.26,13.8-23.93,6.77-19.04-11.46-39.18-13.65-58.88-1.87-19.92,11.91-28.99,30.15-27.74,53.39,1.9,35.52,44.25,61.74,76.44,46.89,4.81-2.22,8.07-7.78,12.05-11.79-.54-.71-1.08-1.42-1.61-2.13Z"/>
      <path class="cls-1" d="M1014.43,73.22v30.06c15.57,0,30.99,.02,46.42,0,24.38-.03,21-1.41,21.12,20.98,.14,26.02,2.83,25.79-25.74,25.72-13.68-.03-27.36,0-42.13,0,0,8.11-.06,15.47,.02,22.83,.06,6.04,4.28,6.09,8.75,6.08,27.76-.06,55.53-.02,83.29-.02,12.77,0,14.75,1.91,14.64,14.27-.07,8.36-.16,16.72-.31,25.07-.17,9.97-2.18,12.04-12.16,12.05-41.5,.06-83-.11-124.49,.14-25.09,.15-24.04-.57-23.91-24.13,.32-56.72,.29-113.45,.44-170.17,.03-12.56,1.44-13.93,13.85-13.92,44.48,.05,88.97,.09,133.45,.17,11.01,.02,12.27,1.3,12.38,12.43,.09,8.96-.25,17.93,.19,26.86,.42,8.58-3.34,11.72-11.66,11.66-31.03-.21-62.06-.08-94.17-.08Z"/>
      <path class="cls-1" d="M15.11,28.01c2.92-1.88,5.83-5.37,8.77-5.39,49.29-.35,98.58-.27,147.87-.27,6.61,0,10.03,3.76,10.2,10,.3,10.75,.29,21.51,.05,32.26-.17,7.66-5.72,8.64-11.82,8.63-30.77-.03-61.54-.03-92.31-.04-2.93,0-5.85,0-9.37,0v40.78c18.25,0,36.35,.23,54.45-.06,21.97-.35,20.14-.72,20.19,19.54,.01,5.68,.06,11.35,.04,17.03-.05,11.2-2.26,13.36-13.78,13.43-17.03,.1-34.05,.16-51.08,.23-2.93,.01-5.87,0-10.37,0,0,17.34,.04,33.94-.01,50.53-.05,15.43-.16,15.48-15.53,15.34-8.96-.08-17.98,.52-26.86-.38-3.7-.38-7.09-3.85-10.62-5.91,.05-65.24,.11-130.48,.16-195.71Z"/>
      <path class="cls-1" d="M522.71,270.45c14.54-.08,14.4-.01,20.33,13.81,12.56,29.27,25.33,58.44,37.92,87.69,5.36,12.45,3.96,13.39-9.62,14.62-12.78,1.16-20.46-2.8-23.21-15.57-1.66-7.67-6.49-10.07-14.3-9.39-9.19,.79-18.51,.61-27.73,.12-5.44-.29-8.48,1.51-9.82,6.62-.23,.86-.62,1.68-.98,2.5-6.02,14.13-16.18,19.07-30.79,14.84-7.1-2.05-4-6.8-2.36-10.7,10.93-26.08,22-52.1,33.01-78.15,1.51-3.57,2.88-7.19,4.45-10.73,7.39-16.71,3.78-15.64,23.1-15.67Zm-13.04,64.72h23.59c-3.91-9.89-7.51-19.02-11.6-29.38-4.17,10.23-7.91,19.38-11.98,29.38Z"/>
      <path class="cls-1" d="M641.19,327.28c0,15.51,.1,31.02-.04,46.53-.09,10.19-3.41,12.68-15.89,12.58-11.39-.09-14.49-2.8-14.5-13.05-.02-29.83,.03-59.65,.08-89.48,.02-11.25,2.41-13.64,13.51-13.71,2.09-.01,4.18,.09,6.26-.02,7.48-.38,10.9,2.91,10.78,10.61-.25,15.51-.07,31.02-.07,46.53h-.13Z"/>
      <path class="cls-2" d="M514.56,259.58c14.54-.08,14.4-.01,20.33,13.81,12.56,29.27,25.33,58.44,37.92,87.69,5.36,12.45,3.96,13.39-9.62,14.62-12.78,1.16-20.46-2.8-23.21-15.57-1.66-7.67-6.49-10.07-14.3-9.39-9.19,.79-18.51,.61-27.73,.12-5.44-.29-8.48,1.51-9.82,6.62-.23,.86-.62,1.68-.98,2.5-6.02,14.13-16.18,19.07-30.79,14.84-7.1-2.05-4-6.8-2.36-10.7,10.93-26.08,22-52.1,33.01-78.15,1.51-3.57,2.88-7.19,4.45-10.73,7.39-16.71,3.78-15.64,23.1-15.67Zm-13.04,64.72h23.59c-3.91-9.89-7.51-19.02-11.6-29.38-4.17,10.23-7.91,19.38-11.98,29.38Z"/>
      <path class="cls-2" d="M819.07,322.23c-37.3,0-74.59,.02-111.89-.01-9.56,0-13.78-3.49-13.46-11.24,.35-8.41,5.49-10.88,13.21-10.88,74.89-.08,149.78-.32,224.66-.46,8.12-.02,12.93,4.37,13.02,11.49,.09,7.37-4.17,11.2-12.75,11.21-37.59,.03-75.19,.02-112.78,.02v-.11Z"/>
      <path class="cls-2" d="M295.96,322.51c-35.81,0-71.62,0-107.44,0-8.84,0-13.75-4.21-13.44-11.72,.34-8.48,5.55-10.75,13.26-10.75,71.02,.08,142.05-.03,213.07,.05,3.13,0,7.71,.27,9.07,2.2,2.65,3.74,5.64,9.48,4.45,13.04-1.1,3.29-7.46,6.75-11.55,6.81-35.8,.53-71.62,.3-107.43,.3v.07Z"/>
      <path class="cls-2" d="M633.04,316.41c0,15.51,.1,31.02-.04,46.53-.09,10.19-3.41,12.68-15.89,12.58-11.39-.09-14.49-2.8-14.5-13.05-.02-29.83,.03-59.65,.08-89.48,.02-11.25,2.41-13.64,13.51-13.71,2.09-.01,4.18,.09,6.26-.02,7.48-.38,10.9,2.91,10.78,10.61-.25,15.51-.07,31.02-.07,46.53h-.13Z"/>
      <path class="cls-2" d="M604.47,152.05c14.99,16.41,28.63,31.35,42.26,46.29,2.41,2.64,5.05,5.14,7.08,8.06,3.15,4.52,1.64,7.58-3.83,7.62-16.11,.11-32.24,.23-48.34-.44-3.23-.13-6.97-3.12-9.37-5.78-12.82-14.16-25.73-28.27-37.71-43.12-7.61-9.44-16.31-13.03-29.05-9.83,0,15.01,0,30.42,0,45.83,0,10.74-2.39,13.15-13.08,13.15-9.55,0-19.11-.25-28.65-.02-8.09,.19-11.34-3.77-11.31-11.45,.13-37.61,.2-75.22,.29-112.82,.05-23.57,.07-47.14,.14-70.71,.03-10.64,1.98-12.78,12.41-12.79,29.55-.02,59.12-.59,88.63,.49,13.22,.49,26.79,2.94,39.35,7.07,25.62,8.41,42.41,24.92,47.79,53.17,2.53,13.29,3.45,25.81,.46,38.53-6.78,28.9-26.39,43.34-57.06,46.76Zm-78.56-46.75c19.33,0,38.08,.09,56.82-.03,14.66-.09,25.35-8.6,24.74-21.15-.64-13.36-6.35-23.98-22.38-25.39-19.44-1.72-39.16-.41-59.19-.41v46.98Z"/>
      <path class="cls-2" d="M313.32,.62c54.87-2.45,114.61,45.59,113.99,111.33-.57,59.5-52.34,109.52-113.6,109.02-63.77-.52-112.59-48.31-112.39-110.02C201.52,48.42,250.27,.4,313.32,.62Zm-55,108.63c.08,33.13,21.77,55.41,54.56,56.55,30.36,1.05,55.96-23.68,56.7-53.69,.78-31.63-23.73-56.92-55.64-57.4-30.46-.45-55.04,23.64-55.62,54.54Z"/>
      <path class="cls-2" d="M844.03,148.3c-6.26,0-12.52,.09-18.78-.02-8.18-.15-13.04-4.71-13.62-12.53-.73-9.8-.97-19.74-.11-29.5,.25-2.83,4.96-7.44,7.74-7.52,21.47-.67,42.98-.59,64.47-.38,6.39,.06,9.59,4.2,9.59,10.58-.03,30.45,.17,60.9-.46,91.34-.09,4.26-3.42,9.84-6.98,12.18-2.55,1.68-7.97-1.19-12.14-1.68-3.36-.39-7.21-1.35-10.12-.21-44.66,17.51-87.12,14.44-124.37-16.84-35.05-29.43-48.54-68.03-35.12-112.56,13.2-43.79,43.24-71.81,88.98-79.43,29.27-4.88,57.64,.5,83.3,16.61,9.22,5.79,9.96,8.81,4.27,17.96-4.31,6.92-8.22,14.13-12.96,20.74-8.09,11.3-12.26,13.8-23.93,6.77-19.04-11.46-39.18-13.65-58.88-1.87-19.92,11.91-28.99,30.15-27.74,53.39,1.9,35.52,44.25,61.74,76.44,46.89,4.81-2.22,8.07-7.78,12.05-11.79-.54-.71-1.08-1.42-1.61-2.13Z"/>
      <path class="cls-2" d="M999.48,56.91v30.06c15.57,0,30.99,.02,46.42,0,24.38-.03,21-1.41,21.12,20.98,.14,26.02,2.83,25.79-25.74,25.72-13.68-.03-27.36,0-42.13,0,0,8.11-.06,15.47,.02,22.83,.06,6.04,4.28,6.09,8.75,6.08,27.76-.06,55.53-.02,83.29-.02,12.77,0,14.75,1.91,14.64,14.27-.07,8.36-.16,16.72-.31,25.07-.17,9.97-2.18,12.04-12.16,12.05-41.5,.06-83-.11-124.49,.14-25.09,.15-24.04-.57-23.91-24.13,.32-56.72,.29-113.45,.44-170.17,.03-12.56,1.44-13.93,13.85-13.92,44.48,.05,88.97,.09,133.45,.17,11.01,.02,12.27,1.3,12.38,12.43,.09,8.96-.25,17.93,.19,26.86,.42,8.58-3.34,11.72-11.66,11.66-31.03-.21-62.06-.08-94.17-.08Z"/>
      <path class="cls-2" d="M.16,11.71c2.92-1.88,5.83-5.37,8.77-5.39,49.29-.35,98.58-.27,147.87-.27,6.61,0,10.03,3.76,10.2,10,.3,10.75,.29,21.51,.05,32.26-.17,7.66-5.72,8.64-11.82,8.63-30.77-.03-61.54-.03-92.31-.04-2.93,0-5.85,0-9.37,0v40.78c18.25,0,36.35,.23,54.45-.06,21.97-.35,20.14-.72,20.19,19.54,.01,5.68,.06,11.35,.04,17.03-.05,11.2-2.26,13.36-13.78,13.43-17.03,.1-34.05,.16-51.08,.23-2.93,.01-5.87,0-10.37,0,0,17.34,.04,33.94-.01,50.53-.05,15.43-.16,15.48-15.53,15.34-8.96-.08-17.98,.52-26.86-.38-3.7-.38-7.09-3.85-10.62-5.91C.05,142.18,.11,76.94,.16,11.71Z"/>
    </g>
  </g>
</svg>